HIERARCHY
ROOT Hips
{
	OFFSET 0.000000 8.830580 0.000000
	CHANNELS 6 Xposition Yposition Zposition Zrotation Yrotation Xrotation 
	JOINT Spine
	{
		OFFSET 0.000000 0.010000 0.000000
		CHANNELS 3 Zrotation Yrotation Xrotation
		JOINT Spine1
		{
			OFFSET 0.000000 2.459130 0.000000
			CHANNELS 3 Zrotation Yrotation Xrotation
			JOINT Neck
			{
				OFFSET 0.000000 2.484630 0.000000
				CHANNELS 3 Zrotation Yrotation Xrotation
				JOINT Head_virtual
				{
					OFFSET 0.000000 0.000000 0.000000
					CHANNELS 3 Zrotation Yrotation Xrotation
					JOINT Head
					{
						OFFSET 0.000000 0.927525 0.000000
						CHANNELS 3 Zrotation Yrotation Xrotation
						End Site
						{
							OFFSET 0.000000 0.000000 0.000000
						}
					}
				}
				JOINT LeftUpArm_virtual
				{
					OFFSET 0.000000 0.000000 0.000000
					CHANNELS 3 Zrotation Yrotation Xrotation
					JOINT LeftUpArm
					{
						OFFSET 1.248820 0.000000 0.000000
						CHANNELS 3 Zrotation Yrotation Xrotation
						JOINT LeftForeArm
						{
							OFFSET 2.597580 0.000000 0.000000
							CHANNELS 3 Zrotation Yrotation Xrotation
							JOINT LeftHand
							{
								OFFSET 2.455420 0.000000 0.000000
								CHANNELS 3 Zrotation Yrotation Xrotation
								End Site
								{
									OFFSET 0.000000 0.000000 0.000000
								}
							}
						}
					}
				}
				JOINT RightUpArm_virtual
				{
					OFFSET -0.000000 -0.000000 -0.000000
					CHANNELS 3 Zrotation Yrotation Xrotation
					JOINT RightUpArm
					{
						OFFSET -1.248820 -0.000000 -0.000000
						CHANNELS 3 Zrotation Yrotation Xrotation
						JOINT RightForeArm
						{
							OFFSET -2.597580 -0.000000 -0.000000
							CHANNELS 3 Zrotation Yrotation Xrotation
							JOINT RightHand
							{
								OFFSET -2.455420 -0.000000 -0.000000
								CHANNELS 3 Zrotation Yrotation Xrotation
								End Site
								{
									OFFSET 0.000000 0.000000 0.000000
								}
							}
						}
					}
				}
			}
		}
	}
	JOINT LeftUpLeg
	{
		OFFSET 1.271939 0.000000 0.000000
		CHANNELS 3 Zrotation Yrotation Xrotation
		JOINT LeftLowLeg
		{
			OFFSET 0.000000 -4.342910 0.000000
			CHANNELS 3 Zrotation Yrotation Xrotation
			JOINT LeftFoot
			{
				OFFSET 0.000000 -4.487670 0.000000
				CHANNELS 3 Zrotation Yrotation Xrotation
				JOINT LeftToeBase
				{
					OFFSET 0.000000 0.000000 1.515070
					CHANNELS 3 Zrotation Yrotation Xrotation
					End Site
					{
						OFFSET 0.000000 0.000000 0.000000
					}
				}
			}
		}
	}
	JOINT RightUpLeg
	{
		OFFSET -1.271939 0.000000 0.000000
		CHANNELS 3 Zrotation Yrotation Xrotation
		JOINT RightLowLeg
		{
			OFFSET 0.000000 -4.342910 0.000000
			CHANNELS 3 Zrotation Yrotation Xrotation
			JOINT RightFoot
			{
				OFFSET 0.000000 -4.487670 0.000000
				CHANNELS 3 Zrotation Yrotation Xrotation
				JOINT RightToeBase
				{
					OFFSET 0.000000 0.000000 1.515070
					CHANNELS 3 Zrotation Yrotation Xrotation
					End Site
					{
						OFFSET 0.000000 0.000000 0.000000
					}
				}
			}
		}
	}
}
MOTION
Frames: 10
Frame Time: 0.041667
-14.870358 9.071274 46.732595 -170.478200 3.466248 178.144594 8.099924 -2.219993 -17.525680 4.287356 -0.661915 9.049739 0.000000 0.000000 0.000000 1.397268 8.487002 20.940189 7.631312 3.891820 -80.640214 -17.817699 9.825120 -9.224800 6.742310 8.036480 15.893100 -180.000000 -54.367996 -180.000000 8.014510 6.168410 27.138399 16.690100 -12.494700 -2.800240 -9.413830 3.972970 -0.581131 180.000000 47.042999 180.000000 33.892300 -21.861500 7.239970 -7.079000 19.389875 -6.230009 0.000000 0.000000 17.920099 10.012959 4.767164 6.730390 0.000000 0.000000 -14.932459 22.235031 18.771272 6.699326 0.000000 0.000000 7.529470 9.763535 -22.725576 9.922546 0.000000 0.000000 -13.826890 
-14.843284 9.075410 46.709715 -170.723084 4.089863 178.326925 7.912040 -1.858259 -17.502702 3.928763 -0.235812 8.900066 0.000000 0.000000 0.000000 1.263712 8.573956 20.787843 7.764900 3.784405 -80.676584 -17.802299 9.903430 -9.302870 6.294410 8.146000 16.060801 -180.000000 -54.570000 180.000000 7.969170 6.117810 27.493401 16.492901 -12.520900 -2.758650 -9.281710 3.951760 -0.257265 -180.000000 46.966003 -180.000000 33.066299 -21.357500 7.595990 -7.174405 19.154619 -6.465123 0.000000 0.000000 18.258400 9.480450 5.253144 6.753396 0.000000 0.000000 -14.592524 22.129655 18.926141 6.784080 0.000000 0.000000 7.485670 9.370943 -22.436286 10.165781 0.000000 0.000000 -13.191490 
-14.817542 9.079225 46.685581 -171.013544 4.776720 178.459497 7.770034 -1.467600 -17.506128 3.451746 0.159313 8.885394 0.000000 0.000000 0.000000 1.085326 8.679667 20.527665 7.839407 3.662394 -80.745993 -17.696400 9.965220 -9.459840 5.774190 8.401230 16.259001 -180.000000 -54.771004 180.000000 7.892320 6.203670 27.657900 16.237400 -12.452900 -2.740620 -9.199790 3.973590 0.023897 180.000000 46.854004 180.000000 32.160099 -20.913000 7.723830 -7.294453 19.253161 -6.404631 0.000000 0.000000 18.163200 9.116086 5.584208 6.757257 0.000000 0.000000 -14.095212 21.944588 18.786959 6.796588 0.000000 0.000000 7.671820 8.925886 -21.972180 10.356998 0.000000 0.000000 -12.705600 
-14.793472 9.081455 46.670859 -171.321233 5.719714 178.655378 7.672402 -0.960937 -17.371221 3.022259 0.630963 8.703602 0.000000 0.000000 0.000000 0.816570 8.825810 20.395481 7.854259 3.471142 -80.924894 -17.683901 10.023100 -9.566900 5.183230 8.706100 16.413200 180.000000 -55.141998 -180.000000 7.985910 6.209640 27.720501 16.006800 -12.264400 -2.620110 -9.403860 4.025990 0.203791 -180.000000 46.725998 -180.000000 30.932501 -20.499300 7.928340 -7.483362 19.749177 -6.296843 0.000000 0.000000 17.741699 8.827985 5.879518 6.718916 0.000000 0.000000 -13.282280 21.759610 19.145975 6.599356 0.000000 0.000000 8.193700 8.722963 -21.639675 10.305812 0.000000 0.000000 -12.403510 
-14.771082 9.084521 46.650064 -171.618917 6.400069 178.779043 7.622015 -0.592582 -17.387259 2.506240 0.933744 8.783576 0.000000 0.000000 0.000000 0.474064 9.059040 20.137007 7.803024 3.273446 -81.005974 -17.605600 10.091200 -9.727210 4.410270 9.041090 16.614500 -180.000000 -55.637001 180.000000 8.195300 6.251520 27.743401 15.692400 -12.097600 -2.616240 -9.591610 4.188650 0.406210 180.000000 46.638000 180.000000 29.445101 -19.842400 8.168800 -7.653457 20.066521 -6.009778 0.000000 0.000000 17.152700 8.598421 6.108650 6.774395 0.000000 0.000000 -12.793400 21.586080 19.279856 6.533396 0.000000 0.000000 8.536890 8.344039 -21.349691 10.359132 0.000000 0.000000 -12.048220 
-14.750356 9.087842 46.628996 -171.900197 6.928436 178.852773 7.692296 -0.204014 -17.398013 1.764913 1.144416 8.859181 0.000000 0.000000 0.000000 0.234853 9.173177 19.917841 7.724841 3.102387 -81.069071 -17.505600 10.049100 -9.822930 3.626770 9.400810 16.874001 -180.000000 -56.283997 180.000000 8.557850 6.347150 27.843800 15.480300 -11.888400 -2.557140 -9.892290 4.289420 0.608776 180.000000 46.619995 180.000000 27.175699 -18.708799 7.871980 -7.805877 20.367493 -5.778084 0.000000 0.000000 16.770800 8.386735 6.258726 6.820735 0.000000 0.000000 -12.531010 21.460124 19.537029 6.583357 0.000000 0.000000 8.714670 8.070704 -21.271280 10.403143 0.000000 0.000000 -12.013780 
-14.731022 9.091315 46.608339 -172.150835 7.267703 178.968557 7.777911 0.117838 -17.515339 1.081497 1.300549 9.034227 0.000000 0.000000 0.000000 -0.053412 9.275836 19.705753 7.607181 2.875614 -81.221061 -17.436701 9.932110 -9.828820 2.692200 9.695800 17.101200 180.000000 -57.052002 -180.000000 8.797540 6.732660 28.191799 15.269200 -11.790200 -2.570190 -10.296000 4.462910 0.724521 -180.000000 46.623001 -180.000000 25.094000 -17.687799 7.974170 -7.941597 20.481157 -5.714585 0.000000 0.000000 16.635099 8.167596 6.336098 6.850253 0.000000 0.000000 -12.403800 21.364468 19.904562 6.666018 0.000000 0.000000 8.693710 7.903502 -21.390194 10.443253 0.000000 0.000000 -11.865140 
-14.713550 9.093517 46.588765 -172.345159 7.405630 179.043917 7.904507 0.317025 -17.581478 0.420966 1.315508 9.161376 0.000000 0.000000 0.000000 -0.332453 9.338529 19.497752 7.210680 2.664840 -81.294215 -17.365000 9.911900 -9.905950 1.584030 9.855300 17.392000 180.000000 -58.028999 -180.000000 8.610280 6.877300 29.033701 15.052100 -11.597700 -2.591220 -10.761100 4.583910 0.794953 180.000000 46.647995 180.000000 23.008301 -16.924801 7.641040 -8.025463 20.376757 -5.714399 0.000000 0.000000 16.690399 7.957524 6.441870 6.842537 0.000000 0.000000 -12.395820 21.305436 20.074351 6.799988 0.000000 0.000000 8.558650 7.732324 -21.511371 10.506525 0.000000 0.000000 -11.859590 
-14.697140 9.094748 46.571821 -172.534244 7.458664 179.117848 7.992052 0.438421 -17.578031 -0.097538 1.297510 9.207481 0.000000 0.000000 0.000000 -0.688119 9.378462 19.358116 6.587786 2.396888 -81.569337 -17.338800 9.922220 -9.851340 0.227258 9.945530 17.528999 -180.000000 -59.161003 180.000000 8.011370 7.071960 29.670799 14.860700 -11.348200 -2.640910 -11.380500 4.580540 0.796439 180.000000 46.781006 180.000000 21.104700 -15.811000 7.518330 -8.106196 20.182646 -5.786050 0.000000 0.000000 16.862101 7.693874 6.503711 6.814319 0.000000 0.000000 -12.419260 21.230602 20.146682 6.873903 0.000000 0.000000 8.475240 7.581804 -21.602409 10.525756 0.000000 0.000000 -11.863140 
-14.680868 9.094238 46.557450 -172.694040 7.408785 179.168910 8.050748 0.496999 -17.484379 -0.504498 1.245568 9.215527 0.000000 0.000000 0.000000 -1.097243 9.415966 19.099868 5.700645 2.113492 -81.836043 -17.241600 9.918910 -9.767130 -1.396360 10.028500 17.644899 -180.000000 -60.558998 180.000000 7.347640 7.019040 30.310101 14.643100 -11.158000 -2.751060 -11.958300 4.598700 0.688744 180.000000 46.904999 180.000000 19.526501 -15.002600 7.288780 -8.165921 19.992917 -5.812596 0.000000 0.000000 16.968700 7.526231 6.541943 6.743672 0.000000 0.000000 -12.463530 21.178563 20.129499 6.891126 0.000000 0.000000 8.481550 7.476784 -21.687064 10.482304 0.000000 0.000000 -11.878590 
